<?xml version="1.0" standalone="no"?><!DOCTYPE svg PUBLIC "-//W3C//DTD SVG 1.1//EN" "http://www.w3.org/Graphics/SVG/1.1/DTD/svg11.dtd"><svg t="1682239729510" class="icon" viewBox="0 0 1024 1024" version="1.1" xmlns="http://www.w3.org/2000/svg" p-id="6931" xmlns:xlink="http://www.w3.org/1999/xlink" width="200" height="200"><path d="M130.6 673.2c20.9 49.3 50.70000001 93.6 88.7 131.6s82.3 67.8 131.6 88.7C402 915.10000001 456.1 926 512 926l0.1 0c55.9 0 110.1-11 161.1-32.6 49.3-20.9 93.6-50.70000001 131.6-88.7s67.8-82.3 88.7-131.6C915.10000001 622 926 567.8 926 511.9s-11-110.1-32.6-161.1c-20.9-49.3-50.70000001-93.6-88.7-131.6s-82.3-67.8-131.6-88.7C622 108.89999999 567.9 98 512 98l-0.1 0c-55.9 0-110.1 11-161.1 32.6-49.3 20.9-93.6 50.70000001-131.6 88.7s-67.8 82.3-88.7 131.6C108.89999999 402 98 456.2 98 512.1s11 110.1 32.6 161.1z m124-418.5C323.30000001 185.9 414.7 148 511.9 148l0.1 0c97.2 0 188.6 37.8 257.3 106.6C838.1 323.30000001 876 414.7 876 511.9c0 97.2-37.8 188.6-106.6 257.4C700.69999999 838.1 609.3 876 512.1 876l-0.1 0c-97.2 0-188.6-37.8-257.3-106.6C185.9 700.69999999 148 609.3 148 512.1c0-97.3 37.8-188.7 106.6-257.4z" p-id="6932"></path><path d="M317.7 752.1c8.79999999 6.9 21.2 7 30.2 0.4L512 631.2 676.2 752.4c9 6.60000001 21.3 6.5 30.2-0.4 8.79999999-6.9 12-18.8 7.8-29.2l-179.1-440.6c-3.8-9.4-13-15.6-23.2-15.6s-19.3 6.2-23.2 15.6l-178.9 440.7c-4.1 10.4-0.9 22.3 7.9 29.2zM512 358.10000001L634.4 659.4 526.9 580c-8.8-6.5-20.9-6.5-29.7 0l-107.49999999 79.5L512 358.10000001z" p-id="6933"></path></svg>